<svg width="14" height="12" viewBox="0 0 14 12" fill="none" xmlns="http://www.w3.org/2000/svg">
<path d="M4.99508 5.99621C5.00121 5.323 5.18206 4.66292 5.51993 4.08059C5.8578 3.49827 6.3411 3.01368 6.92251 2.67426C7.03823 2.58282 7.17567 2.52291 7.32143 2.50038C7.46718 2.47785 7.61628 2.49346 7.75421 2.54569C7.89214 2.59793 8.01417 2.685 8.10844 2.79843C8.20271 2.91186 8.26601 3.04776 8.29213 3.19292C8.43443 3.61056 8.6066 4.01827 8.74463 4.43734C8.78143 4.56314 8.85082 4.67695 8.94578 4.76729C9.04075 4.85763 9.1579 4.92127 9.28538 4.95175C9.70801 5.07341 10.1306 5.19366 10.5511 5.3203C10.6064 5.33074 10.659 5.35211 10.7059 5.38314C10.7528 5.41418 10.793 5.45426 10.8242 5.50104C10.8554 5.54783 10.877 5.60036 10.8877 5.65558C10.8983 5.7108 10.8978 5.76758 10.8862 5.82262C10.8798 5.882 10.8607 5.93932 10.8303 5.9907C10.7998 6.04207 10.7587 6.08631 10.7096 6.12043C10.6606 6.15456 10.6048 6.17777 10.546 6.1885C10.4873 6.19923 10.4269 6.19723 10.369 6.18264C9.94565 6.12359 9.52373 6.05741 9.10394 5.9763C8.78918 5.92913 8.4907 5.80574 8.23451 5.61688C7.97831 5.42802 7.77218 5.17941 7.63401 4.89269C7.56286 4.75039 7.47604 4.6145 7.38283 4.45228C7.05563 4.77111 6.83582 5.18391 6.75389 5.63336C6.70195 5.8397 6.75386 5.93787 6.95877 6.00831C7.56781 6.21677 8.17259 6.43948 8.77451 6.66858C8.8944 6.69739 9.00512 6.75594 9.09643 6.83881C9.18774 6.92168 9.25671 7.02621 9.29697 7.14275C9.33724 7.2593 9.34748 7.38411 9.32681 7.50567C9.30613 7.62722 9.25517 7.74161 9.17864 7.83829C8.87696 8.33634 8.55397 8.82157 8.23451 9.30894C8.00825 9.65402 8.00398 9.65116 8.23451 10.0012C8.24874 10.0226 8.27363 10.0446 8.27363 10.066C8.27363 10.1805 8.30848 10.3314 8.25014 10.3997C8.20722 10.442 8.15508 10.4738 8.0978 10.4925C8.04052 10.5113 7.97966 10.5165 7.92001 10.5078C7.61301 10.4209 7.31251 10.3124 7.0207 10.1834C6.96394 10.1649 6.91208 10.1338 6.86892 10.0925C6.82577 10.0513 6.79243 10.0009 6.77139 9.94498C6.75035 9.88911 6.74215 9.82921 6.74737 9.76974C6.7526 9.71026 6.77112 9.65273 6.80157 9.60137C7.02498 9.06396 7.24906 8.52655 7.4739 7.98913C7.49239 7.94431 7.50593 7.89805 7.52514 7.84682C7.04915 7.70452 6.58385 7.56649 6.12351 7.41992C5.92091 7.36369 5.72575 7.28343 5.54221 7.18086C5.3486 7.05507 5.19451 6.8771 5.0977 6.66749C5.00089 6.45789 4.96532 6.22517 4.99508 5.99621Z" fill="url(#paint0_linear_27_762)"/>
<path d="M3.90118 6.64067C3.48638 6.64565 3.07086 6.63641 2.65606 6.64495C2.48415 6.64867 2.31302 6.66941 2.14519 6.70685C1.79242 6.78138 1.46716 6.95211 1.20545 7.20013C0.94374 7.44815 0.755804 7.76379 0.662448 8.11206L0.513062 8.55959L0.42343 8.54891C0.291525 8.24166 0.242511 7.90518 0.28134 7.57308C0.320168 7.24097 0.445419 6.92486 0.644644 6.65633C0.244783 6.57024 0.0463098 6.3817 0.0391948 6.05726C0.0202216 5.21817 0.00744665 4.37884 0.000806019 3.53928C-0.00339611 3.46035 0.00886382 3.38141 0.0368498 3.30749C0.0648358 3.23357 0.107886 3.16628 0.163307 3.10992C0.218728 3.05356 0.285283 3.00936 0.358725 2.98014C0.432167 2.95092 0.51085 2.93731 0.58984 2.94019C1.46451 2.93213 2.33925 2.93213 3.21391 2.94019C3.38578 2.94012 3.55183 3.00226 3.68144 3.11513C3.81105 3.228 3.89544 3.38397 3.91898 3.55422C4.07836 4.38335 4.23557 5.21342 4.39068 6.04445C4.41172 6.1174 4.41469 6.19437 4.39936 6.26873C4.38404 6.34308 4.35087 6.41259 4.3027 6.47127C4.25452 6.52994 4.19278 6.57603 4.12283 6.60554C4.05288 6.63505 3.97683 6.64711 3.90118 6.64067Z" fill="url(#paint1_linear_27_762)"/>
<path d="M10.7331 7.43094C10.8647 7.36477 10.9181 7.30144 10.8619 7.15416C10.8218 7.03828 10.7914 6.91929 10.7708 6.79842C10.7324 6.60916 10.7964 6.47967 10.9387 6.44267C11.0945 6.40069 11.2183 6.48608 11.2703 6.67676C11.3172 6.84823 11.3592 7.02183 11.4076 7.21322C11.5806 7.20358 11.754 7.20358 11.927 7.21322C12.3552 7.26614 12.7569 7.44885 13.0782 7.73681C13.3995 8.02478 13.6249 8.40419 13.7242 8.82406C13.8227 9.24482 13.7906 9.68559 13.6322 10.0877C13.4738 10.4897 13.1967 10.8339 12.8377 11.0745C12.4786 11.3119 12.0554 11.4338 11.625 11.4237C11.1947 11.4137 10.7776 11.2722 10.43 11.0183C10.14 10.8036 9.90975 10.5184 9.7611 10.1896C9.61246 9.86087 9.55038 9.49958 9.58075 9.14007C9.61113 8.78056 9.73294 8.43479 9.93463 8.13564C10.1363 7.83649 10.4112 7.5939 10.7331 7.43094ZM10.4891 9.75752C10.5995 10.0533 10.8161 10.2973 11.0967 10.442C11.3773 10.5867 11.7017 10.6217 12.0067 10.5402C12.3186 10.4536 12.5858 10.2516 12.7543 9.97518C12.9228 9.69876 12.9798 9.36862 12.9138 9.05172C12.8538 8.757 12.6887 8.49415 12.4493 8.31208C12.2099 8.13001 11.9125 8.04114 11.6125 8.06203C11.6687 8.27975 11.7192 8.49391 11.7832 8.70237C11.7939 8.73866 11.8544 8.76357 11.8999 8.78634C11.9738 8.81813 12.0402 8.86523 12.0945 8.92452C12.1489 8.98382 12.1901 9.05397 12.2153 9.13034C12.2406 9.20671 12.2494 9.28758 12.2412 9.3676C12.2329 9.44762 12.2078 9.52498 12.1674 9.59459C12.1292 9.6611 12.0778 9.7192 12.0165 9.76536C11.9552 9.81153 11.8852 9.84481 11.8107 9.86322C11.7362 9.88163 11.6587 9.88479 11.583 9.8725C11.5072 9.8602 11.4347 9.83271 11.3699 9.79168C11.3029 9.7475 11.2459 9.68994 11.2023 9.62262C11.1588 9.5553 11.1296 9.4797 11.1167 9.40056C11.1038 9.32142 11.1074 9.24045 11.1274 9.16278C11.1473 9.08511 11.1831 9.01242 11.2326 8.94927C11.2692 8.88819 11.2831 8.8161 11.2717 8.74578C11.2368 8.55866 11.1827 8.37581 11.1294 8.17659C10.8446 8.31263 10.621 8.55027 10.5025 8.84282C10.384 9.13536 10.3792 9.46163 10.4891 9.75752Z" fill="url(#paint2_linear_27_762)"/>
<path d="M3.12233 7.20739C3.39966 7.20379 3.67489 7.25554 3.93197 7.35962C4.18905 7.4637 4.42279 7.61802 4.6195 7.81353C4.81621 8.00905 4.972 8.24184 5.07765 8.49828C5.18329 8.75472 5.23668 9.02966 5.23476 9.30701C5.2372 9.58421 5.18477 9.85916 5.08051 10.116C4.97625 10.3729 4.82219 10.6066 4.62723 10.8036C4.43227 11.0007 4.20028 11.1573 3.94457 11.2643C3.68885 11.3713 3.41448 11.4267 3.13727 11.4273C2.86 11.4276 2.58543 11.3732 2.32928 11.2671C2.07313 11.1609 1.84044 11.0051 1.64471 10.8088C1.44898 10.6124 1.29402 10.3792 1.18874 10.1227C1.08345 9.86617 1.02996 9.5914 1.03127 9.31413C1.02995 8.75769 1.24933 8.22342 1.64133 7.82849C2.03332 7.43357 2.5659 7.21021 3.12233 7.20739ZM3.13797 10.5856C3.47381 10.5818 3.79479 10.4463 4.03168 10.2083C4.26857 9.97017 4.40242 9.64855 4.40445 9.3127C4.40203 8.97624 4.26725 8.65425 4.02934 8.41633C3.79142 8.17841 3.46948 8.04368 3.13302 8.04126C2.96664 8.0419 2.80203 8.07551 2.64873 8.14016C2.49543 8.20482 2.3565 8.29924 2.23991 8.41794C2.12333 8.53664 2.03143 8.67727 1.96954 8.83171C1.90765 8.98614 1.87704 9.15131 1.87939 9.31767C1.87712 9.48384 1.90795 9.64881 1.97015 9.80291C2.03235 9.95702 2.12467 10.0972 2.24165 10.2152C2.35863 10.3333 2.49788 10.4268 2.65142 10.4904C2.80496 10.554 2.9697 10.5863 3.13588 10.5856H3.13797Z" fill="url(#paint3_linear_27_762)"/>
<path d="M10.5124 1.44271C10.095 1.36246 9.68274 1.25721 9.27794 1.12752C9.01184 1.04855 8.86954 1.13251 8.90725 1.40714C8.9473 1.64019 8.9993 1.87101 9.06306 2.09871C9.08015 2.18749 9.12226 2.26958 9.1844 2.33525C9.24654 2.40092 9.32616 2.44748 9.41386 2.46944C9.77601 2.5662 10.1388 2.66012 10.5046 2.74194C10.6753 2.77965 10.718 2.83728 10.6092 2.981C10.5415 3.08771 10.4418 3.17029 10.3244 3.21693C10.2069 3.26358 10.0777 3.27189 9.9553 3.24069C9.50948 3.13575 9.07173 2.99902 8.64543 2.83157C8.36554 2.71369 8.12947 2.51134 7.97016 2.25278C7.81084 1.99423 7.73621 1.69239 7.75676 1.38938C7.78789 1.21396 7.83432 1.04159 7.89551 0.874261C8.01296 0.599357 8.21305 0.3678 8.46804 0.21175C8.72302 0.0556997 9.02026 -0.0171061 9.3185 0.00339042C9.63945 0.0207337 9.94818 0.132182 10.2062 0.323876C10.4642 0.51557 10.66 0.778988 10.7692 1.08127C10.8753 1.37156 10.8105 1.49038 10.5124 1.44271Z" fill="url(#paint4_linear_27_762)"/>
<path d="M12.4357 6.7641C12.2582 6.71597 12.0868 6.64743 11.9249 6.55989C11.7907 6.48988 11.6786 6.38396 11.6011 6.25393C11.5235 6.12389 11.4837 5.97486 11.4859 5.82349C11.4844 5.59471 11.5537 5.37107 11.6843 5.18319C11.8148 4.99531 12.0002 4.85241 12.2152 4.77405C12.2628 4.73704 12.3184 4.71153 12.3775 4.69949C12.4366 4.68745 12.4976 4.68919 12.556 4.70461C12.6143 4.72003 12.6682 4.7487 12.7136 4.78838C12.7591 4.82806 12.7947 4.87771 12.8179 4.93342C13.006 5.23852 13.0968 5.59363 13.0782 5.95157C13.0373 6.1531 12.9826 6.35158 12.9146 6.54567C12.9019 6.59443 12.8784 6.63974 12.846 6.67831C12.8136 6.71689 12.7729 6.74774 12.7271 6.76866C12.6812 6.78958 12.6313 6.80002 12.5809 6.79923C12.5305 6.79844 12.4809 6.78645 12.4357 6.7641Z" fill="url(#paint5_linear_27_762)"/>
<path d="M9.20053 1.25433C9.23041 1.24509 9.3201 1.32548 9.32508 1.37315C9.33006 1.42082 9.27381 1.4877 9.21547 1.60083C9.13507 1.49624 9.05824 1.43931 9.06322 1.38737C9.0682 1.33543 9.1429 1.26856 9.20053 1.25433Z" fill="url(#paint6_linear_27_762)"/>
<path d="M3.10381 8.74255C3.18194 8.73773 3.26025 8.74882 3.33397 8.77514C3.40769 8.80147 3.47528 8.84246 3.53269 8.89567C3.5901 8.94889 3.6361 9.01321 3.66792 9.08473C3.69974 9.15625 3.71676 9.23347 3.71786 9.31174C3.71755 9.46343 3.65921 9.60925 3.55484 9.71932C3.45046 9.82938 3.3079 9.89535 3.15645 9.90371C3.07968 9.90588 3.00321 9.89287 2.9315 9.8654C2.85978 9.83794 2.79427 9.79658 2.7386 9.74368C2.68292 9.69078 2.6382 9.6274 2.6071 9.55719C2.57601 9.48697 2.55909 9.41129 2.55734 9.33452C2.55361 9.2596 2.56486 9.18467 2.59043 9.11415C2.616 9.04363 2.65541 8.97893 2.70629 8.92381C2.75717 8.86869 2.81852 8.82427 2.88677 8.79314C2.95502 8.76202 3.02883 8.74483 3.10381 8.74255Z" fill="url(#paint7_linear_27_762)"/>
<defs>
<linearGradient id="paint0_linear_27_762" x1="7.94009" y1="2.49036" x2="7.94009" y2="10.5119" gradientUnits="userSpaceOnUse">
<stop stop-color="#FE724C"/>
<stop offset="1" stop-color="#FCA892"/>
</linearGradient>
<linearGradient id="paint1_linear_27_762" x1="2.20451" y1="2.93414" x2="2.20451" y2="8.55959" gradientUnits="userSpaceOnUse">
<stop stop-color="#FE724C"/>
<stop offset="1" stop-color="#FCA892"/>
</linearGradient>
<linearGradient id="paint2_linear_27_762" x1="11.6767" y1="6.43219" x2="11.6767" y2="11.4243" gradientUnits="userSpaceOnUse">
<stop stop-color="#FE724C"/>
<stop offset="1" stop-color="#FCA892"/>
</linearGradient>
<linearGradient id="paint3_linear_27_762" x1="3.13305" y1="7.20721" x2="3.13305" y2="11.4273" gradientUnits="userSpaceOnUse">
<stop stop-color="#FE724C"/>
<stop offset="1" stop-color="#FCA892"/>
</linearGradient>
<linearGradient id="paint4_linear_27_762" x1="9.28515" y1="0" x2="9.28515" y2="3.25924" gradientUnits="userSpaceOnUse">
<stop stop-color="#FE724C"/>
<stop offset="1" stop-color="#FCA892"/>
</linearGradient>
<linearGradient id="paint5_linear_27_762" x1="12.2832" y1="4.69159" x2="12.2832" y2="6.79927" gradientUnits="userSpaceOnUse">
<stop stop-color="#FE724C"/>
<stop offset="1" stop-color="#FCA892"/>
</linearGradient>
<linearGradient id="paint6_linear_27_762" x1="9.19419" y1="1.2536" x2="9.19419" y2="1.60083" gradientUnits="userSpaceOnUse">
<stop stop-color="#FE724C"/>
<stop offset="1" stop-color="#FCA892"/>
</linearGradient>
<linearGradient id="paint7_linear_27_762" x1="3.13725" y1="8.74146" x2="3.13725" y2="9.90394" gradientUnits="userSpaceOnUse">
<stop stop-color="#FE724C"/>
<stop offset="1" stop-color="#FCA892"/>
</linearGradient>
</defs>
</svg>
