<svg width="11" height="13" viewBox="0 0 11 13" fill="none" xmlns="http://www.w3.org/2000/svg">
<path d="M4.61987 12.0879C4.30715 12.088 3.99521 12.0565 3.6888 11.9941C3.09792 11.873 2.53666 11.6368 2.03703 11.299C1.29426 10.7975 0.712841 10.0914 0.363238 9.26625C0.245049 8.98681 0.154819 8.69636 0.0938671 8.39914C-0.031289 7.78474 -0.031289 7.15141 0.0938671 6.537C0.214898 5.94612 0.451092 5.38486 0.788972 4.88524C1.29041 4.14246 1.9965 3.56105 2.82169 3.21144C3.10113 3.09325 3.39158 3.00302 3.6888 2.94207C4.3032 2.81692 4.93653 2.81692 5.55094 2.94207C6.14182 3.0631 6.70308 3.2993 7.2027 3.63718C7.94548 4.13862 8.52689 4.84471 8.8765 5.6699C8.99469 5.94933 9.08492 6.23978 9.14587 6.537C9.26894 7.14162 9.27087 7.76464 9.15155 8.37C9.04922 8.8907 8.8568 9.38954 8.58296 9.84408C8.17284 10.5289 7.59211 11.0956 6.89748 11.4889C6.20286 11.8822 5.4181 12.0886 4.61987 12.0879ZM6.21122 5.30387C6.13636 5.30381 6.06222 5.31853 5.99307 5.34719C5.92391 5.37586 5.8611 5.41789 5.80823 5.47089L4.19342 7.08356C4.08645 7.19072 4.02643 7.33599 4.02656 7.48741C4.02669 7.63883 4.08697 7.78399 4.19413 7.89096C4.3013 7.99794 4.44656 8.05796 4.59798 8.05783C4.7494 8.05769 4.89456 7.99741 5.00153 7.89025L5.80823 7.08356L6.61492 6.27758C6.69556 6.19817 6.75066 6.09651 6.77319 5.9856C6.79571 5.87469 6.78462 5.75958 6.74134 5.65501C6.69806 5.55044 6.62456 5.46116 6.53025 5.3986C6.43593 5.33605 6.3251 5.30306 6.21193 5.30387H6.21122Z" fill="url(#paint0_linear_27_771)"/>
<path d="M2.3584 0.604244C2.3584 0.444019 2.42205 0.290356 2.53534 0.17706C2.64864 0.0637634 2.8023 0.000114083 2.96253 0.000114083L6.58731 0.000114083C6.74753 0.000114083 6.9012 0.0637634 7.01449 0.17706C7.12779 0.290356 7.19144 0.444019 7.19144 0.604244C7.19144 0.764469 7.12779 0.918132 7.01449 1.03143C6.9012 1.14472 6.74753 1.20837 6.58731 1.20837L2.96253 1.20837C2.8023 1.20837 2.64864 1.14472 2.53534 1.03143C2.42205 0.918132 2.3584 0.764469 2.3584 0.604244V0.604244Z" fill="url(#paint1_linear_27_771)"/>
<path d="M8.55942 1.73251C8.67645 1.61548 8.83517 1.54974 9.00068 1.54974C9.16618 1.54974 9.3249 1.61548 9.44193 1.73251L10.239 2.52959C10.356 2.64661 10.4218 2.80534 10.4218 2.97084C10.4218 3.13635 10.356 3.29507 10.239 3.4121C10.122 3.52913 9.96326 3.59487 9.79775 3.59487C9.63225 3.59487 9.47352 3.52913 9.3565 3.4121L8.55942 2.61502C8.44239 2.49799 8.37665 2.33927 8.37665 2.17377C8.37665 2.00826 8.44239 1.84954 8.55942 1.73251Z" fill="url(#paint2_linear_27_771)"/>
<defs>
<linearGradient id="paint0_linear_27_771" x1="4.61981" y1="2.84821" x2="4.61981" y2="12.0879" gradientUnits="userSpaceOnUse">
<stop stop-color="#FE724C"/>
<stop offset="1" stop-color="#FCA892"/>
</linearGradient>
<linearGradient id="paint1_linear_27_771" x1="2.3584" y1="0.604244" x2="7.19144" y2="0.604244" gradientUnits="userSpaceOnUse">
<stop stop-color="#FE724C"/>
<stop offset="1" stop-color="#FCA892"/>
</linearGradient>
<linearGradient id="paint2_linear_27_771" x1="8.55942" y1="1.73251" x2="10.239" y2="3.4121" gradientUnits="userSpaceOnUse">
<stop stop-color="#FE724C"/>
<stop offset="1" stop-color="#FCA892"/>
</linearGradient>
</defs>
</svg>
